# Blender 4.4.3
# www.blender.org
mtllib bird.mtl
o flyingCrow
v 0.033839 -0.074848 0.378203
v 0.051118 -0.081405 0.334832
v 0.039599 -0.046511 0.337971
v 0.056878 -0.032460 0.329728
v 0.068397 -0.079718 0.306754
v 0.056878 -0.121403 0.283568
v 0.085676 -0.065616 0.265641
v 0.068397 -0.045898 0.274607
v 0.078764 -0.035870 0.239082
v 0.125993 -0.056505 0.226712
v 0.242431 -0.005574 0.182436
v 0.462261 0.079574 0.203375
v 0.636216 0.120222 0.163057
v 0.809079 0.142689 0.047865
v 0.079916 -0.088884 0.246666
v 0.114474 -0.032955 0.200000
v 0.200726 -0.001231 0.166945
v 0.120233 -0.067513 0.184677
v 0.671087 0.123603 0.065144
v 0.582073 0.099751 0.053625
v 0.547202 0.096371 0.070904
v 0.434844 0.048376 0.013308
v 0.389938 0.060195 0.030587
v 0.218071 -0.004773 -0.021291
v 0.120897 -0.016556 -0.013954
v 0.097851 -0.032955 -0.092299
v 0.063213 -0.011873 0.251033
v 0.375830 0.068340 0.140019
v 0.509350 0.104117 0.140019
v 0.051118 -0.021436 -0.411053
v 0.119334 -0.055994 -0.393774
v 0.113574 -0.027196 -0.347698
v 0.090536 -0.021436 -0.255544
v 0.084776 -0.015676 -0.197948
v 0.077251 -0.009917 -0.094275
v 0.085676 -0.009917 0.001436
v 0.073005 -0.015100 0.154875
v 0.143272 -0.021436 0.079272
v 0.058030 -0.066506 0.325620
v 0.028080 -0.109273 0.327572
v 0.045358 -0.081639 0.358579
v 0.039599 -0.063467 0.357361
v 0.216742 0.007442 0.064079
v 0.056302 -0.018867 0.289995
v 0.108714 -0.073272 0.057964
v 0.061715 -0.120232 0.137717
v 0.065726 -0.073272 -0.088516
v 0.662542 0.133239 0.111221
v 0.220743 -0.015247 0.079176
v 0.409609 0.053540 0.134259
v 0.033839 -0.123827 0.247089
v 0.022320 -0.139520 0.453592
v 0.022320 -0.106257 0.386012
v 0.022320 -0.071168 0.434283
v 0.022320 -0.033545 0.386740
v 0.022320 -0.101264 0.365370
v 0.010801 -0.074848 0.378203
v -0.006478 -0.081405 0.334832
v 0.022320 -0.006044 0.342561
v 0.022320 -0.117750 0.337267
v 0.022320 -0.137463 0.272012
v 0.022320 0.006346 0.280729
v 0.022320 -0.142692 0.164752
v 0.022320 -0.096285 0.034168
v 0.022320 -0.059460 -0.195180
v 0.022320 -0.038715 -0.474409
v 0.022320 0.013122 0.132684
v 0.022320 0.013122 -0.105794
v 0.022320 0.001602 -0.203708
v 0.005041 -0.046511 0.337971
v -0.012238 -0.032460 0.329728
v -0.023757 -0.079718 0.306754
v -0.012238 -0.121403 0.283568
v -0.041036 -0.065616 0.265641
v -0.023757 -0.045898 0.274607
v -0.034124 -0.035870 0.239082
v -0.081353 -0.056505 0.226712
v -0.197791 -0.005574 0.182436
v -0.417621 0.079574 0.203375
v -0.591576 0.120222 0.163057
v -0.764439 0.142689 0.047865
v -0.035276 -0.088884 0.246666
v -0.069834 -0.032955 0.200000
v -0.156086 -0.001231 0.166945
v -0.075593 -0.067513 0.184677
v -0.626447 0.123603 0.065144
v -0.537433 0.099751 0.053625
v -0.502562 0.096371 0.070904
v -0.390204 0.048376 0.013308
v -0.345298 0.060195 0.030587
v -0.173431 -0.004773 -0.021291
v -0.076257 -0.016556 -0.013954
v -0.053211 -0.032955 -0.092299
v -0.018573 -0.011873 0.251033
v -0.331190 0.068340 0.140019
v -0.464710 0.104117 0.140019
v 0.022320 -0.030075 -0.313140
v 0.022320 -0.004157 -0.316020
v -0.006478 -0.021436 -0.411053
v -0.074694 -0.055994 -0.393774
v -0.068934 -0.027196 -0.347698
v -0.045896 -0.021436 -0.255544
v -0.040136 -0.015676 -0.197948
v -0.032611 -0.009917 -0.094275
v -0.041036 -0.009917 0.001436
v -0.028364 -0.015100 0.154875
v -0.098632 -0.021436 0.079272
v -0.013389 -0.066506 0.325620
v 0.016560 -0.109273 0.327572
v -0.000718 -0.081639 0.358579
v 0.005041 -0.063467 0.357361
v -0.172102 0.007442 0.064079
v -0.011662 -0.018867 0.289995
v -0.064074 -0.073272 0.057964
v -0.017075 -0.120232 0.137717
v -0.021086 -0.073272 -0.088516
v -0.617902 0.133239 0.111221
v -0.176102 -0.015247 0.079176
v -0.364969 0.053540 0.134259
v 0.010801 -0.123827 0.247089
vn 0.9536 -0.0845 0.2891
vn 0.8208 -0.4508 0.3508
vn 0.8183 -0.0935 0.5671
vn 0.8559 0.2716 0.4401
vn 0.9105 -0.1199 0.3957
vn 0.4884 -0.8560 0.1695
vn 0.8612 0.0634 0.5043
vn 0.8758 0.3663 0.3144
vn 0.6815 0.6411 0.3528
vn 0.7247 -0.1155 0.6793
vn 0.3341 -0.2516 0.9083
vn 0.1658 0.0184 0.9860
vn 0.3461 0.0180 0.9380
vn 0.9263 0.1008 -0.3631
vn 0.7166 -0.6789 0.1600
vn 0.1147 0.9226 0.3683
vn -0.2637 0.9113 0.3161
vn 0.4803 -0.8755 0.0528
vn -0.0324 -0.1102 -0.9934
vn -0.1675 -0.2179 -0.9615
vn 0.0284 -0.0963 -0.9949
vn -0.0461 -0.2370 -0.9704
vn 0.3728 0.2322 -0.8984
vn 0.1094 -0.0560 -0.9924
vn 0.7452 0.4916 -0.4506
vn 0.9822 -0.0282 -0.1856
vn 0.7093 0.6860 0.1624
vn -0.2997 0.9498 0.0896
vn -0.2230 0.9748 -0.0010
vn 0.7309 0.2788 -0.6229
vn 0.7432 -0.3992 -0.5368
vn 0.9774 0.2081 0.0378
vn 0.9921 0.0197 -0.1238
vn 0.9702 0.2183 -0.1048
vn 0.5679 0.8229 -0.0181
vn 0.2591 0.9650 -0.0397
vn 0.3765 0.9220 0.0909
vn -0.1318 0.9891 0.0660
vn 0.8861 0.0749 0.4574
vn 0.7466 -0.5990 0.2895
vn 0.9103 -0.2384 0.3383
vn 0.9224 0.2678 0.2783
vn -0.3134 0.9490 -0.0356
vn 0.7723 0.6051 0.1936
vn 0.5008 -0.8393 -0.2116
vn 0.5406 -0.8357 -0.0970
vn 0.4772 -0.8496 -0.2247
vn -0.0977 0.9950 0.0208
vn 0.3963 -0.9131 -0.0963
vn 0.2995 -0.9536 0.0311
vn 0.6581 -0.7527 0.0185
vn -0.0000 -0.7334 0.6798
vn -0.0000 -0.9875 -0.1573
vn -0.0000 0.4421 0.8970
vn -0.0000 0.7027 0.7115
vn -0.0000 -1.0000 0.0029
vn -0.9536 -0.0845 0.2891
vn -0.8208 -0.4508 0.3508
vn -0.0000 0.9178 0.3970
vn -0.0000 -0.9050 0.4254
vn -0.0000 -0.9723 0.2336
vn -0.0000 0.9857 0.1688
vn -0.0000 -0.9999 -0.0156
vn -0.0000 -0.9782 -0.2076
vn -0.0000 -0.9825 -0.1863
vn -0.0000 -0.1754 -0.9845
vn -0.0000 0.9990 0.0448
vn -0.0000 0.9995 -0.0323
vn -0.0000 0.9962 -0.0873
vn -0.8183 -0.0935 0.5671
vn -0.8559 0.2716 0.4401
vn -0.9105 -0.1199 0.3957
vn -0.4884 -0.8560 0.1695
vn -0.8612 0.0634 0.5043
vn -0.8758 0.3663 0.3144
vn -0.6815 0.6411 0.3528
vn -0.7247 -0.1155 0.6793
vn -0.3341 -0.2516 0.9083
vn -0.1658 0.0184 0.9860
vn -0.3461 0.0180 0.9380
vn -0.9263 0.1008 -0.3631
vn -0.7166 -0.6789 0.1600
vn -0.1147 0.9226 0.3683
vn 0.2637 0.9113 0.3161
vn -0.4803 -0.8755 0.0528
vn 0.0324 -0.1102 -0.9934
vn 0.1675 -0.2179 -0.9615
vn -0.0284 -0.0963 -0.9949
vn 0.0461 -0.2370 -0.9704
vn -0.3728 0.2322 -0.8984
vn -0.1094 -0.0560 -0.9924
vn -0.7452 0.4916 -0.4506
vn -0.9822 -0.0282 -0.1856
vn -0.7093 0.6860 0.1624
vn 0.2997 0.9498 0.0896
vn 0.2230 0.9748 -0.0010
vn -0.0000 -1.0000 -0.0092
vn -0.0000 0.9947 -0.1032
vn -0.7309 0.2788 -0.6229
vn -0.7432 -0.3992 -0.5368
vn -0.9774 0.2081 0.0378
vn -0.9921 0.0197 -0.1238
vn -0.9702 0.2183 -0.1048
vn -0.5679 0.8229 -0.0181
vn -0.2591 0.9650 -0.0397
vn -0.3765 0.9220 0.0909
vn 0.1318 0.9891 0.0660
vn -0.8861 0.0749 0.4574
vn -0.7466 -0.5990 0.2895
vn -0.9103 -0.2384 0.3383
vn -0.9224 0.2678 0.2783
vn 0.3134 0.9490 -0.0356
vn -0.7723 0.6051 0.1936
vn -0.5008 -0.8393 -0.2116
vn -0.5406 -0.8357 -0.0970
vn -0.4772 -0.8496 -0.2247
vn 0.0977 0.9950 0.0208
vn -0.3963 -0.9131 -0.0963
vn -0.2995 -0.9536 0.0311
vn -0.6581 -0.7527 0.0185
vt 0.033888 0.899067
vt 0.094486 0.843530
vt 0.088681 0.890393
vt 0.617140 0.514334
vt 0.630958 0.500496
vt 0.630958 0.569658
vt 0.978491 0.235266
vt 0.954396 0.230213
vt 0.987189 0.220979
vt 0.072288 0.850000
vt 0.090622 0.824482
vt 0.105783 0.826847
vt 0.122319 0.813441
vt 0.126286 0.857166
vt 0.155676 0.825612
vt 0.130297 0.803407
vt 0.956033 0.307822
vt 0.963473 0.261912
vt 0.973336 0.257862
vt 0.642606 0.508771
vt 0.649373 0.500496
vt 0.649373 0.532218
vt 0.935313 0.320382
vt 0.931382 0.286292
vt 0.919538 0.260193
vt 0.941955 0.245562
vt 0.073377 0.759750
vt 0.111620 0.742738
vt 0.096975 0.778102
vt 0.128643 0.756397
vt 0.140787 0.726952
vt 0.116577 0.701994
vt 0.177374 0.779079
vt 0.148572 0.774182
vt 0.099504 0.727652
vt 0.919791 0.386269
vt 0.142268 0.686849
vt 0.252573 0.068179
vt 0.273644 0.075044
vt 0.218892 0.140942
vt 0.228246 0.174926
vt 0.844531 0.296762
vt 0.888969 0.282593
vt 0.892990 0.301321
vt 0.836917 0.330546
vt 0.255178 0.769043
vt 0.211792 0.883864
vt 0.194455 0.850096
vt 0.159980 0.742804
vt 0.226316 0.370410
vt 0.182479 0.293201
vt 0.171551 0.407631
vt 0.180025 0.514782
vt 0.393414 0.424133
vt 0.404324 0.343509
vt 0.447285 0.304713
vt 0.665031 0.835473
vt 0.662275 0.778065
vt 0.719298 0.717420
vt 0.630691 0.748529
vt 0.642655 0.713073
vt 0.356021 0.339091
vt 0.341166 0.374035
vt 0.329018 0.451642
vt 0.689499 0.652826
vt 0.358557 0.510348
vt 0.314802 0.497363
vt 0.327011 0.584978
vt 0.769242 0.635895
vt 0.712131 0.612133
vt 0.745146 0.533740
vt 0.578179 0.500496
vt 0.578179 0.584615
vt 0.554947 0.581763
vt 0.287982 0.579180
vt 0.569806 0.658640
vt 0.020331 0.029334
vt 0.095537 0.032344
vt 0.080768 0.057967
vt 0.253068 0.650511
vt 0.174621 0.665587
vt 0.212281 0.665587
vt 0.219188 0.034508
vt 0.286547 0.042317
vt 0.206388 0.544157
vt 0.153682 0.083093
vt 0.105497 0.796818
vt 0.094204 0.804548
vt 0.135300 0.146575
vt 0.067316 0.137750
vt 0.094211 0.293359
vt 0.802018 0.426826
vt 0.876349 0.390307
vt 0.860518 0.474643
vt 0.780462 0.546656
vt 0.751930 0.467414
vt 0.077338 0.325558
vt 0.113697 0.430459
vt 0.136312 0.534018
vt 0.097192 0.457642
vt 0.099109 0.534933
vt 0.074466 0.648105
vt 0.733104 0.284960
vt 0.714675 0.368002
vt 0.678179 0.440253
vt 0.557892 0.339246
vt 0.582560 0.258752
vt 0.562678 0.188405
vt 0.523879 0.339093
vt 0.451988 0.255149
vt 0.415474 0.156842
vt 0.420613 0.256132
vt 0.355725 0.216267
vt 0.247904 0.182350
vt 0.630958 0.515210
vt 0.642606 0.500496
vt 0.642606 0.555121
vt 0.395958 0.141114
vt 0.413942 0.091671
vt 0.461289 0.097242
vt 0.451259 0.123062
vt 0.467959 0.121436
vt 0.479356 0.101388
vt 0.479695 0.089334
vt 0.453375 0.068269
vt 0.495838 0.078577
vt 0.195377 0.932603
vt 0.228907 0.935287
vt 0.186973 0.968953
vt 0.541307 0.158319
vt 0.489830 0.136745
vt 0.499210 0.129871
vt 0.564370 0.147640
vt 0.617140 0.568170
vt 0.597021 0.528369
vt 0.617140 0.500496
vt 0.526125 0.099314
vt 0.540510 0.136068
vt 0.499672 0.102169
vt 0.563467 0.088461
vt 0.553099 0.077183
vt 0.256224 0.897319
vt 0.272624 0.872207
vt 0.274918 0.897227
vt 0.314134 0.878599
vt 0.238036 0.903334
vt 0.576476 0.109426
vt 0.626926 0.173330
vt 0.309663 0.852578
vt 0.376249 0.850493
vt 0.402474 0.875389
vt 0.604113 0.075158
vt 0.636025 0.089278
vt 0.506880 0.064368
vt 0.539042 0.058392
vt 0.253516 0.874774
vt 0.584248 0.070613
vt 0.572044 0.055358
vt 0.539732 0.950910
vt 0.498403 0.876851
vt 0.588444 0.914209
vt 0.670246 0.968953
vt 0.445916 0.360887
vt 0.597021 0.500496
vt 0.597021 0.631610
vt 0.578179 0.548588
vt 0.702453 0.796372
vt 0.766040 0.810201
vt 0.769968 0.771083
vt 0.496134 0.397636
vt 0.472961 0.429104
vt 0.427539 0.492808
vt 0.784671 0.696190
vt 0.405005 0.535053
vt 0.983184 0.107777
vt 0.917977 0.147866
vt 0.936009 0.098990
vt 0.853815 0.097687
vt 0.385704 0.621956
vt 0.367316 0.612329
vt 0.344570 0.688744
vt 0.375824 0.688038
vt 0.290126 0.803775
vt 0.364770 0.767143
vt 0.509166 0.090114
vt 0.446105 0.710730
vt 0.417253 0.775221
vt 0.543006 0.797311
vt 0.734570 0.109689
vt 0.658341 0.148993
vt 0.931311 0.415350
vt 0.922551 0.481747
vt 0.841020 0.574250
vt 0.841992 0.135977
vt 0.796981 0.071272
vt 0.582746 0.798492
vt 0.637977 0.872919
vt 0.667761 0.869828
vt 0.702550 0.935821
vt 0.724318 0.903625
vt 0.825768 0.930363
vt 0.667886 0.011175
vt 0.745211 0.034748
vt 0.963086 0.975050
vt 0.899514 0.888313
vt 0.978533 0.905615
vt 0.952260 0.788973
vt 0.819317 0.862534
vt 0.872295 0.759541
vt 0.821686 0.719395
vt 0.971244 0.753106
vt 0.934999 0.675767
vt 0.870004 0.604493
vt 0.952214 0.652329
vt 0.951261 0.590663
vt 0.978533 0.493620
s 1
usemtl crow01
f 52/1/52 1/2/1 54/3/54
f 53/4/53 1/5/1 52/6/52
f 56/7/56 41/8/41 53/9/53
f 1/2/1 53/10/53 41/11/41
f 1/2/1 42/12/42 54/3/54
f 54/3/54 3/13/3 55/14/55
f 41/11/41 42/12/42 1/2/1
f 59/15/59 55/14/55 4/16/4
f 61/17/61 40/18/40 60/19/60
f 60/20/60 40/21/40 56/22/56
f 51/23/51 40/18/40 61/17/61
f 40/18/40 51/23/51 6/24/6
f 5/25/5 2/26/2 6/24/6
f 6/27/6 7/28/7 5/29/5
f 3/13/3 54/3/54 42/12/42
f 7/28/7 8/30/8 5/29/5
f 8/30/8 7/28/7 9/31/9
f 9/31/9 7/28/7 10/32/10
f 62/33/62 59/15/59 44/34/44
f 7/28/7 6/27/6 15/35/15
f 63/36/63 51/23/51 61/17/61
f 10/32/10 16/37/16 9/31/9
f 16/38/16 10/39/10 17/40/17
f 11/41/11 17/40/17 10/39/10
f 10/42/10 7/43/7 15/44/15
f 15/44/15 18/45/18 10/42/10
f 4/16/4 44/34/44 59/15/59
f 8/30/8 44/34/44 4/16/4
f 67/46/67 62/47/62 27/48/27
f 9/31/9 27/49/27 8/30/8
f 12/50/12 28/51/28 11/41/11
f 17/40/17 11/41/11 28/51/28
f 28/51/28 12/50/12 29/52/29
f 13/53/13 29/52/29 12/50/12
f 98/54/98 30/55/30 66/56/66
f 66/57/66 30/58/30 97/59/97
f 30/58/30 31/60/31 97/59/97
f 32/61/32 97/59/97 31/60/31
f 30/55/30 98/54/98 31/62/31
f 32/63/32 31/62/31 98/54/98
f 33/64/33 32/63/32 98/54/98
f 33/65/33 97/59/97 32/61/32
f 69/66/69 34/67/34 33/64/33
f 98/54/98 69/66/69 33/64/33
f 69/66/69 68/68/68 34/67/34
f 97/59/97 33/65/33 65/69/65
f 33/65/33 34/70/34 65/69/65
f 34/70/34 26/71/26 65/69/65
f 34/72/34 35/73/35 26/74/26
f 34/67/34 68/68/68 35/75/35
f 35/73/35 36/76/36 26/74/26
f 26/77/26 36/78/36 25/79/25
f 68/68/68 67/46/67 35/75/35
f 35/75/35 67/46/67 36/80/36
f 27/49/27 9/31/9 37/81/37
f 27/49/27 37/81/37 67/82/67
f 16/38/16 37/83/37 9/84/9
f 67/82/67 37/81/37 36/85/36
f 37/83/37 38/86/38 36/78/36
f 37/83/37 16/38/16 38/86/38
f 17/40/17 38/86/38 16/38/16
f 36/78/36 38/86/38 25/79/25
f 5/29/5 39/87/39 2/88/2
f 8/30/8 39/87/39 5/29/5
f 4/16/4 39/87/39 8/30/8
f 2/26/2 56/7/56 40/18/40
f 6/24/6 2/26/2 40/18/40
f 42/12/42 41/11/41 3/13/3
f 3/13/3 41/11/41 39/87/39
f 39/87/39 41/11/41 2/88/2
f 2/26/2 41/8/41 56/7/56
f 25/79/25 43/89/43 24/90/24
f 38/86/38 43/89/43 25/79/25
f 38/86/38 17/40/17 43/89/43
f 28/51/28 43/89/43 17/40/17
f 24/90/24 43/89/43 23/91/23
f 43/89/43 28/51/28 23/91/23
f 27/49/27 44/34/44 8/30/8
f 27/49/27 62/33/62 44/34/44
f 18/45/18 15/44/15 45/92/45
f 46/93/46 45/92/45 15/44/15
f 15/44/15 63/36/63 46/93/46
f 64/94/64 46/93/46 63/36/63
f 46/93/46 64/94/64 45/92/45
f 64/94/64 47/95/47 45/92/45
f 65/69/65 47/95/47 64/94/64
f 65/69/65 26/71/26 47/95/47
f 26/71/26 25/96/25 47/95/47
f 47/95/47 25/96/25 45/92/45
f 23/91/23 28/51/28 22/97/22
f 28/51/28 29/52/29 22/97/22
f 22/97/22 29/52/29 21/98/21
f 21/98/21 48/99/48 20/100/20
f 20/100/20 48/99/48 19/101/19
f 29/52/29 48/99/48 21/98/21
f 29/52/29 13/53/13 48/99/48
f 19/101/19 48/99/48 14/102/14
f 14/102/14 48/99/48 13/53/13
f 10/42/10 18/45/18 11/103/11
f 18/45/18 45/92/45 11/103/11
f 25/96/25 49/104/49 45/92/45
f 11/103/11 45/92/45 49/104/49
f 25/96/25 24/105/24 49/104/49
f 24/105/24 23/106/23 49/104/49
f 49/104/49 23/106/23 11/103/11
f 23/106/23 50/107/50 11/103/11
f 12/108/12 11/103/11 50/107/50
f 23/106/23 22/109/22 50/107/50
f 22/109/22 21/110/21 50/107/50
f 50/107/50 21/110/21 12/108/12
f 13/111/13 12/108/12 21/110/21
f 21/110/21 20/112/20 13/111/13
f 20/112/20 19/113/19 13/111/13
f 13/111/13 19/113/19 14/114/14
f 15/44/15 6/24/6 51/23/51
f 51/23/51 63/36/63 15/44/15
f 3/13/3 39/87/39 4/16/4
f 3/115/3 4/116/4 55/117/55
f 52/118/52 54/119/54 57/120/57
f 53/121/53 52/118/52 57/120/57
f 56/122/56 53/121/53 110/123/110
f 57/120/57 110/123/110 53/121/53
f 57/120/57 54/119/54 111/124/111
f 54/119/54 55/125/55 70/126/70
f 110/123/110 57/120/57 111/124/111
f 59/127/59 71/128/71 55/129/55
f 61/130/61 60/131/60 109/132/109
f 60/131/60 56/122/56 109/132/109
f 120/133/120 61/130/61 109/132/109
f 109/134/109 73/135/73 120/136/120
f 72/137/72 73/138/73 58/139/58
f 73/138/73 72/137/72 74/140/74
f 70/126/70 111/124/111 54/119/54
f 74/140/74 72/137/72 75/141/75
f 75/142/75 76/143/76 74/144/74
f 76/143/76 77/145/77 74/144/74
f 62/47/62 113/146/113 59/127/59
f 74/140/74 82/147/82 73/138/73
f 63/148/63 61/130/61 120/133/120
f 77/145/77 76/143/76 83/149/83
f 83/149/83 84/150/84 77/145/77
f 78/151/78 77/145/77 84/150/84
f 77/152/77 82/147/82 74/140/74
f 82/147/82 77/152/77 85/153/85
f 71/128/71 59/127/59 113/146/113
f 75/141/75 71/154/71 113/155/113
f 67/46/67 94/156/94 62/47/62
f 76/157/76 75/141/75 94/158/94
f 79/159/79 78/151/78 95/160/95
f 84/150/84 95/160/95 78/151/78
f 95/160/95 96/161/96 79/159/79
f 80/162/80 79/159/79 96/161/96
f 98/54/98 66/56/66 99/163/99
f 66/164/66 97/165/97 99/166/99
f 99/167/99 97/59/97 100/168/100
f 101/169/101 100/168/100 97/59/97
f 99/163/99 100/170/100 98/54/98
f 101/171/101 98/54/98 100/170/100
f 102/172/102 98/54/98 101/171/101
f 102/173/102 101/169/101 97/59/97
f 69/66/69 102/172/102 103/174/103
f 98/54/98 102/172/102 69/66/69
f 69/66/69 103/174/103 68/68/68
f 97/59/97 65/69/65 102/173/102
f 102/175/102 65/176/65 103/177/103
f 103/177/103 65/176/65 93/178/93
f 103/174/103 93/179/93 104/180/104
f 103/174/103 104/180/104 68/68/68
f 104/180/104 93/179/93 105/181/105
f 93/179/93 92/182/92 105/181/105
f 68/68/68 104/180/104 67/46/67
f 104/180/104 105/181/105 67/46/67
f 94/156/94 106/183/106 76/143/76
f 94/156/94 67/46/67 106/183/106
f 83/149/83 76/143/76 106/183/106
f 67/46/67 105/181/105 106/183/106
f 106/183/106 105/181/105 107/184/107
f 106/183/106 107/184/107 83/149/83
f 84/150/84 83/149/83 107/184/107
f 105/181/105 92/182/92 107/184/107
f 72/137/72 58/139/58 108/185/108
f 75/141/75 72/137/72 108/185/108
f 71/154/71 75/141/75 108/185/108
f 58/139/58 109/132/109 56/122/56
f 73/138/73 109/132/109 58/139/58
f 111/124/111 70/126/70 110/123/110
f 70/126/70 108/185/108 110/123/110
f 108/185/108 58/139/58 110/123/110
f 58/139/58 56/122/56 110/123/110
f 92/182/92 91/186/91 112/187/112
f 107/184/107 92/182/92 112/187/112
f 107/184/107 112/187/112 84/150/84
f 95/160/95 84/150/84 112/187/112
f 91/186/91 90/188/90 112/187/112
f 112/187/112 90/188/90 95/160/95
f 94/158/94 75/141/75 113/155/113
f 94/156/94 113/146/113 62/47/62
f 85/153/85 114/189/114 82/147/82
f 115/190/115 82/147/82 114/189/114
f 82/147/82 115/190/115 63/148/63
f 64/94/64 63/36/63 115/191/115
f 115/191/115 114/192/114 64/94/64
f 64/94/64 114/192/114 116/193/116
f 65/69/65 64/94/64 116/193/116
f 65/176/65 116/194/116 93/178/93
f 93/178/93 116/194/116 92/195/92
f 116/194/116 114/189/114 92/195/92
f 90/188/90 89/196/89 95/160/95
f 95/160/95 89/196/89 96/161/96
f 89/196/89 88/197/88 96/161/96
f 88/197/88 87/198/87 117/199/117
f 87/198/87 86/200/86 117/199/117
f 96/161/96 88/197/88 117/199/117
f 96/161/96 117/199/117 80/162/80
f 86/200/86 81/201/81 117/199/117
f 81/201/81 80/162/80 117/199/117
f 77/152/77 78/202/78 85/153/85
f 85/153/85 78/202/78 114/189/114
f 92/195/92 114/189/114 118/203/118
f 78/202/78 118/203/118 114/189/114
f 92/204/92 118/205/118 91/206/91
f 91/206/91 118/205/118 90/207/90
f 118/205/118 78/208/78 90/207/90
f 90/207/90 78/208/78 119/209/119
f 79/210/79 119/209/119 78/208/78
f 90/207/90 119/209/119 89/211/89
f 89/211/89 119/209/119 88/212/88
f 119/209/119 79/210/79 88/212/88
f 80/213/80 88/212/88 79/210/79
f 88/212/88 80/213/80 87/214/87
f 87/214/87 80/213/80 86/215/86
f 80/213/80 81/216/81 86/215/86
f 82/147/82 120/133/120 73/138/73
f 120/133/120 82/147/82 63/148/63
f 70/126/70 71/154/71 108/185/108
f 70/126/70 55/125/55 71/154/71
